<?xml version="1.0" standalone="no"?>
<!DOCTYPE svg PUBLIC "-//W3C//DTD SVG 20010904//EN"
 "http://www.w3.org/TR/2001/REC-SVG-20010904/DTD/svg10.dtd">
<svg version="1.0" xmlns="http://www.w3.org/2000/svg"
 width="500.000000pt" height="500.000000pt" viewBox="0 0 500.000000 500.000000"
 preserveAspectRatio="xMidYMid meet">

<g transform="translate(0.000000,500.000000) scale(0.100000,-0.100000)"
fill="#000000" stroke="none">
<path d="M2230 4075 c-234 -40 -479 -142 -680 -283 -116 -82 -317 -293 -404
-425 -92 -138 -209 -386 -177 -376 6 2 33 54 59 114 86 200 200 363 365 522
175 168 381 293 609 367 191 63 249 71 498 71 199 0 237 -3 328 -23 421 -94
780 -335 1007 -677 55 -83 139 -245 170 -327 16 -44 35 -64 35 -37 0 42 -132
302 -207 407 -246 346 -634 593 -1041 663 -134 22 -439 25 -562 4z"/>
<path d="M2538 3865 c5 -11 12 -27 15 -35 5 -13 6 -13 6 1 1 8 -6 24 -15 35
-15 19 -15 19 -6 -1z"/>
<path d="M2316 3857 c3 -10 9 -15 12 -12 3 3 0 11 -7 18 -10 9 -11 8 -5 -6z"/>
<path d="M2686 3835 c3 -22 10 -44 15 -50 11 -11 3 35 -13 70 -5 13 -6 7 -2
-20z"/>
<path d="M2270 3829 c0 -19 4 -41 9 -48 6 -10 8 1 4 30 -7 55 -13 63 -13 18z"/>
<path d="M2745 3848 c-8 -26 -11 -78 -5 -71 9 9 21 83 14 83 -3 0 -6 -6 -9
-12z"/>
<path d="M2461 3839 c-1 -8 6 -24 15 -35 15 -19 15 -19 6 1 -5 11 -12 27 -15
35 -5 13 -6 13 -6 -1z"/>
<path d="M2111 3825 c0 -5 13 -26 29 -45 16 -19 29 -30 29 -25 0 6 -13 26 -29
45 -16 19 -29 31 -29 25z"/>
<path d="M2320 3814 c0 -13 18 -39 24 -34 2 3 -2 14 -10 24 -8 11 -14 16 -14
10z"/>
<path d="M2900 3767 l5 -52 3 44 c2 24 0 47 -5 52 -4 4 -6 -15 -3 -44z"/>
<path d="M3077 3753 c-11 -18 -36 -83 -32 -83 8 0 47 82 42 87 -3 2 -7 1 -10
-4z"/>
<path d="M3192 3648 c-13 -22 -22 -42 -20 -44 3 -2 15 14 27 37 13 22 21 42
19 44 -2 2 -14 -14 -26 -37z"/>
<path d="M1805 3669 c4 -5 22 -9 42 -9 45 0 40 5 -10 13 -22 3 -35 2 -32 -4z"/>
<path d="M1828 3623 c7 -3 16 -2 19 1 4 3 -2 6 -13 5 -11 0 -14 -3 -6 -6z"/>
<path d="M1660 3596 c0 -7 71 -49 75 -44 3 2 -13 15 -35 27 -22 12 -40 20 -40
17z"/>
<path d="M3290 3579 c-6 -11 -9 -28 -7 -37 4 -14 5 -14 6 2 0 11 8 28 18 38 9
10 11 18 5 18 -6 0 -16 -9 -22 -21z"/>
<path d="M1500 3474 c0 -6 17 -26 37 -45 l38 -34 -30 35 c-16 19 -33 39 -37
45 -5 5 -8 5 -8 -1z"/>
<path d="M3476 3435 c-23 -54 -18 -68 5 -16 11 24 17 46 15 49 -3 2 -12 -13
-20 -33z"/>
<path d="M1410 3320 c19 -16 39 -29 45 -30 5 0 -6 13 -25 30 -19 16 -39 29
-45 30 -5 0 6 -13 25 -30z"/>
<path d="M3585 3328 c-6 -21 -1 -76 8 -71 7 4 6 83 -1 83 -1 0 -4 -6 -7 -12z"/>
<path d="M3541 3294 c0 -11 3 -14 6 -6 3 7 2 16 -1 19 -3 4 -6 -2 -5 -13z"/>
<path d="M1295 3180 c17 -4 41 -8 55 -8 l25 0 -25 8 c-14 4 -38 8 -55 8 l-30
0 30 -8z"/>
<path d="M2280 3010 c6 -11 26 -32 45 -47 24 -19 30 -30 22 -35 -7 -5 1 -8 20
-8 l32 0 -22 23 c-12 13 -27 21 -34 19 -6 -2 -19 10 -29 27 -21 35 -52 54 -34
21z"/>
<path d="M2500 2956 c0 -2 7 -9 15 -16 9 -7 15 -8 15 -2 0 5 -7 12 -15 16 -8
3 -15 4 -15 2z"/>
<path d="M2555 2920 c10 -11 20 -20 23 -20 3 0 -3 9 -13 20 -10 11 -20 20 -23
20 -3 0 3 -9 13 -20z"/>
<path d="M2182 2905 c-11 -13 -8 -15 17 -15 35 0 61 9 61 21 0 15 -64 9 -78
-6z"/>
<path d="M2536 2907 c3 -10 9 -15 12 -12 3 3 0 11 -7 18 -10 9 -11 8 -5 -6z"/>
<path d="M2630 2910 c0 -13 11 -13 30 0 12 8 11 10 -7 10 -13 0 -23 -4 -23
-10z"/>
<path d="M2138 2903 c7 -3 16 -2 19 1 4 3 -2 6 -13 5 -11 0 -14 -3 -6 -6z"/>
<path d="M2444 2901 c3 -5 -16 -11 -43 -13 -26 -3 -59 -12 -72 -21 l-23 -17
29 0 c23 0 27 3 15 10 -12 8 -12 10 5 11 51 2 85 8 101 17 15 8 15 9 0 15 -10
4 -15 3 -12 -2z"/>
<path d="M2719 2883 c14 -28 14 -33 -2 -33 -7 0 -21 -6 -31 -13 -18 -13 -18
-14 0 -14 10 0 25 6 32 14 16 15 59 18 64 3 2 -5 8 1 14 15 11 22 10 23 -14
14 -20 -8 -30 -5 -50 13 -25 23 -25 23 -13 1z"/>
<path d="M2574 2859 c0 -15 7 -19 31 -19 23 0 27 3 15 10 -40 28 -46 29 -46 9z"/>
<path d="M2687 2869 c7 -7 15 -10 18 -7 3 3 -2 9 -12 12 -14 6 -15 5 -6 -5z"/>
<path d="M2530 2860 c8 -5 20 -10 25 -10 6 0 3 5 -5 10 -8 5 -19 10 -25 10 -5
0 -3 -5 5 -10z"/>
<path d="M2510 2830 c-12 -8 -12 -10 5 -10 11 0 27 5 35 10 12 8 12 10 -5 10
-11 0 -27 -5 -35 -10z"/>
<path d="M2440 2800 l-25 -20 23 0 c13 0 20 4 17 10 -3 6 4 14 17 19 13 6 16
10 8 10 -8 0 -26 -8 -40 -19z"/>
<path d="M2753 2804 c-3 -10 -11 -22 -17 -26 -6 -4 -8 -10 -4 -13 4 -4 14 5
24 19 9 15 14 29 11 33 -4 3 -10 -3 -14 -13z"/>
<path d="M2664 2778 l-29 -33 33 29 c17 17 32 31 32 33 0 8 -8 1 -36 -29z"/>
<path d="M2609 2783 c-13 -16 -12 -17 4 -4 9 7 17 15 17 17 0 8 -8 3 -21 -13z"/>
<path d="M2888 2700 c22 -9 22 -12 22 -189 0 -176 0 -179 -22 -186 -20 -7 -18
-9 15 -12 20 -2 52 -2 70 0 29 4 30 5 10 12 -19 6 -23 15 -23 49 0 38 13 66
31 66 4 0 25 -29 48 -65 39 -63 42 -65 81 -65 25 0 39 4 35 10 -3 6 -13 10
-21 10 -13 0 -104 129 -104 148 0 15 76 82 92 82 9 0 20 5 23 10 4 6 -16 10
-52 10 -54 -1 -56 -2 -38 -16 19 -14 17 -16 -38 -72 l-57 -57 0 138 0 137 -47
-1 c-39 0 -44 -2 -25 -9z"/>
<path d="M1954 2685 c-8 -21 2 -45 19 -45 21 0 38 25 31 44 -8 20 -43 21 -50
1z"/>
<path d="M2123 2653 c-7 -2 -13 -20 -13 -39 0 -27 -4 -34 -20 -34 -11 0 -20
-4 -20 -10 0 -5 9 -10 20 -10 19 0 20 -7 20 -95 0 -52 5 -105 11 -119 26 -56
128 -47 129 12 0 19 -21 14 -27 -7 -6 -25 -31 -35 -49 -20 -10 8 -14 40 -14
120 l0 109 39 0 c22 0 43 5 46 10 4 6 -12 10 -39 10 l-46 0 0 40 c0 39 -7 46
-37 33z"/>
<path d="M1565 2582 c-10 -2 -29 -11 -42 -19 -21 -14 -23 -14 -23 1 0 12 -10
16 -46 16 -27 0 -43 -4 -39 -10 3 -5 13 -10 21 -10 11 0 14 -21 14 -114 0
-109 -1 -114 -22 -121 -20 -7 -18 -9 15 -12 20 -2 52 -2 70 0 29 4 30 5 10 12
-22 7 -23 13 -23 99 0 84 2 95 23 114 26 24 66 29 85 10 8 -8 12 -48 12 -114
0 -96 -1 -102 -22 -109 -21 -7 -20 -8 9 -12 18 -2 50 -2 70 0 33 3 35 5 16 12
-22 7 -23 13 -23 99 0 84 2 95 23 114 27 25 69 29 87 8 13 -17 26 -152 16
-189 -3 -13 -16 -28 -28 -32 -20 -7 -18 -9 15 -12 20 -2 52 -2 70 0 29 4 30 5
10 12 -22 7 -23 13 -23 106 0 88 -2 101 -23 124 -29 34 -83 36 -125 6 -29 -20
-30 -20 -46 -2 -19 20 -50 29 -81 23z"/>
<path d="M2364 2583 c-33 -6 -58 -40 -58 -78 0 -45 17 -62 79 -81 80 -23 99
-62 44 -93 -34 -19 -76 -7 -91 24 -12 28 -41 34 -36 9 9 -49 111 -74 161 -41
63 41 36 110 -53 139 -30 10 -57 23 -62 30 -16 26 -8 58 17 70 35 16 74 -3 81
-41 5 -22 10 -27 25 -24 44 12 2 76 -56 85 -16 2 -40 3 -51 1z"/>
<path d="M3304 2584 c-5 -1 -22 -5 -37 -8 -41 -9 -67 -59 -67 -128 0 -98 35
-140 117 -140 38 0 51 6 77 31 29 29 31 36 31 106 0 67 -2 76 -28 103 -26 27
-66 42 -93 36z m51 -39 c22 -21 25 -33 25 -100 0 -67 -3 -79 -25 -100 -29 -30
-58 -32 -85 -5 -17 17 -20 33 -20 105 0 72 3 88 20 105 27 27 56 25 85 -5z"/>
<path d="M1910 2575 c0 -3 11 -10 25 -15 24 -9 25 -12 25 -115 0 -103 -1 -106
-25 -115 -40 -15 -30 -20 40 -20 37 0 65 4 65 10 0 6 -9 10 -20 10 -19 0 -20
7 -20 125 l0 125 -45 0 c-25 0 -45 -2 -45 -5z"/>
<path d="M2540 2570 c0 -5 9 -10 19 -10 17 0 19 -10 23 -105 3 -91 6 -107 24
-126 26 -26 84 -28 119 -5 22 14 25 15 25 1 0 -11 11 -15 46 -15 27 0 43 4 39
10 -3 6 -13 10 -21 10 -11 0 -14 23 -14 125 l0 125 -50 0 c-27 0 -50 -4 -50
-10 0 -5 11 -10 25 -10 25 0 25 0 25 -93 0 -85 -2 -96 -23 -115 -26 -24 -66
-29 -85 -10 -8 8 -12 50 -12 125 l0 113 -45 0 c-25 0 -45 -4 -45 -10z"/>
<path d="M3516 2354 c-17 -16 -12 -40 9 -48 19 -7 46 20 39 39 -8 21 -32 26
-48 9z"/>
<path d="M2412 2163 c-2 -31 -5 -33 -39 -34 -29 -2 -32 -3 -12 -6 22 -3 26 -8
22 -26 -3 -12 -15 -30 -27 -39 -11 -10 -16 -18 -9 -18 17 0 42 28 49 56 10 40
34 29 34 -16 0 -38 2 -40 30 -40 17 0 30 4 30 9 0 4 -11 6 -25 3 -23 -4 -25
-1 -25 31 0 31 3 36 28 40 22 3 20 4 -10 6 -34 1 -37 4 -41 34 l-4 32 -1 -32z"/>
<path d="M2360 2165 c7 -9 15 -13 17 -11 7 7 -7 26 -19 26 -6 0 -6 -6 2 -15z"/>
<path d="M2449 2158 c-12 -23 -12 -23 10 -4 23 21 26 26 11 26 -5 0 -15 -10
-21 -22z"/>
<path d="M2580 2170 c30 -4 59 -3 65 1 5 5 -19 8 -55 8 l-65 -2 55 -7z"/>
<path d="M2593 2153 c-7 -2 -13 -11 -13 -18 0 -9 -15 -15 -37 -18 l-38 -4 38
-1 c34 -2 37 -4 37 -31 0 -20 -6 -31 -17 -34 -14 -4 -13 -5 4 -6 18 -1 22 5
25 32 3 28 7 33 38 38 l35 6 -37 2 c-42 1 -47 7 -20 27 17 13 9 17 -15 7z"/>
<path d="M960 2008 c0 -9 45 -118 78 -189 69 -149 172 -291 316 -434 239 -239
500 -380 836 -452 133 -28 508 -26 643 5 415 93 763 320 999 652 102 144 234
420 201 420 -5 0 -24 -37 -42 -82 -171 -422 -528 -762 -958 -912 -198 -68
-281 -81 -533 -81 -249 0 -307 8 -498 71 -462 151 -836 512 -1011 977 -6 15
-15 27 -21 27 -5 0 -10 -1 -10 -2z"/>
<path d="M1795 1380 c-4 -23 -5 -43 -2 -46 2 -3 7 14 11 37 4 23 5 44 2 46 -2
2 -7 -14 -11 -37z"/>
<path d="M3170 1388 c0 -5 18 -8 40 -8 22 0 40 2 40 4 0 2 -18 6 -40 8 -22 2
-40 0 -40 -4z"/>
<path d="M1910 1320 c-21 -42 -26 -60 -11 -44 11 11 42 84 36 84 -3 0 -14 -18
-25 -40z"/>
<path d="M3060 1353 c1 -5 9 -24 20 -43 23 -41 27 -23 5 20 -15 29 -25 38 -25
23z"/>
<path d="M2960 1265 c19 -19 36 -35 38 -35 8 0 -53 69 -62 69 -6 1 5 -15 24
-34z"/>
<path d="M1952 1270 c0 -14 2 -19 5 -12 2 6 2 18 0 25 -3 6 -5 1 -5 -13z"/>
<path d="M2111 1244 c-15 -61 -8 -68 9 -9 7 25 10 48 8 51 -3 2 -11 -16 -17
-42z"/>
<path d="M2803 1250 c4 -14 7 -35 7 -47 0 -13 4 -23 9 -23 9 0 -5 80 -16 90
-3 3 -3 -6 0 -20z"/>
<path d="M2746 1225 c4 -22 11 -47 16 -55 6 -10 7 -3 2 20 -10 54 -25 83 -18
35z"/>
<path d="M2251 1230 c-1 -14 -4 -36 -6 -50 l-6 -25 11 25 c6 13 9 36 7 50 l-4
25 -2 -25z"/>
<path d="M2600 1237 c0 -11 39 -87 45 -87 3 0 5 3 5 8 0 10 -49 89 -50 79z"/>
<path d="M2410 1212 c0 -4 14 -18 30 -30 17 -13 30 -19 30 -14 0 4 -13 18 -30
30 -16 13 -30 19 -30 14z"/>
<path d="M2400 1166 c0 -2 8 -10 18 -17 15 -13 16 -12 3 4 -13 16 -21 21 -21
13z"/>
</g>
</svg>
